<svg xmlns="http://www.w3.org/2000/svg" width="384" height="1024" viewBox="0 420 384 1024" fill="none">
<g clip-path="url(#clip0_3840_1229)">
<rect width="384" height="1024" fill="#070133"/>
<path d="M119.594 599.416L5.78503 631.64V434.202L119.594 466.419V599.416Z" fill="#a095f5" stroke="black" stroke-linecap="round" stroke-linejoin="round"/>
<path d="M119.667 475.647L5.78503 451.266V434.202L119.667 466.186V475.647Z" fill="#E3FCF7" stroke="black" stroke-linecap="round" stroke-linejoin="round"/>
<path d="M119.667 599.183L50.7275 633.271V435.833L119.667 466.186V599.183Z" fill="#FFEEA9" stroke="black" stroke-linecap="round" stroke-linejoin="round"/>
<path d="M105.946 587.272L64.4491 607.792V488.956L105.946 498.343V587.272Z" fill="#FFC010" stroke="black" stroke-linecap="round" stroke-linejoin="round"/>
<path d="M119.667 475.647L50.7275 454.209V435.833L119.667 466.186V475.647Z" fill="#E3FCF7" stroke="black" stroke-linecap="round" stroke-linejoin="round"/>
<path d="M88.6729 582.392C96.8436 582.392 103.467 565.13 103.467 543.836C103.467 522.543 96.8436 505.281 88.6729 505.281C80.5023 505.281 73.8787 522.543 73.8787 543.836C73.8787 565.13 80.5023 582.392 88.6729 582.392Z" fill="#FFE212" stroke="black" stroke-linecap="round" stroke-linejoin="round"/>
<path d="M88.6726 636.873H102.574L102.574 439.435H88.6726L88.6726 636.873Z" fill="white" stroke="black" stroke-linecap="round" stroke-linejoin="round"/>
<path d="M5.78506 434.202H-3.83118V631.64H5.78506V434.202Z" fill="white" stroke="black" stroke-linecap="round" stroke-linejoin="round"/>
<path d="M119.667 599.183L102.574 636.866V439.428L119.667 466.186V599.183Z" fill="#A6FFEC" stroke="black" stroke-linecap="round" stroke-linejoin="round"/>
<path d="M50.7278 435.833H37.9594V633.271H50.7278V435.833Z" fill="white" stroke="black" stroke-linecap="round" stroke-linejoin="round"/>
<path d="M119.74 599.416L233.549 631.64V434.202L119.74 466.419V599.416Z" fill="#a095f5" stroke="black" stroke-linecap="round" stroke-linejoin="round"/>
<path d="M119.707 475.647L233.589 451.266V434.202L119.707 466.186V475.647Z" fill="#E3FCF7" stroke="black" stroke-linecap="round" stroke-linejoin="round"/>
<path d="M119.667 599.183L188.607 633.271V435.833L119.667 466.186V599.183Z" fill="#FFEEA9" stroke="black" stroke-linecap="round" stroke-linejoin="round"/>
<path d="M119.707 475.647L188.647 454.209V435.833L119.707 466.186V475.647Z" fill="#E3FCF7" stroke="black" stroke-linecap="round" stroke-linejoin="round"/>
<path d="M150.662 439.428H136.76V636.866H150.662V439.428Z" fill="white" stroke="black" stroke-linecap="round" stroke-linejoin="round"/>
<path d="M233.549 631.633H243.165L243.165 434.195H233.549L233.549 631.633Z" fill="white" stroke="black" stroke-linecap="round" stroke-linejoin="round"/>
<path d="M188.613 633.271H201.382L201.382 435.833H188.613L188.613 633.271Z" fill="white" stroke="black" stroke-linecap="round" stroke-linejoin="round"/>
<path d="M21.9987 438.756V454.734L5.78503 451.266V434.202L21.9987 438.756Z" fill="white" stroke="black" stroke-linecap="round" stroke-linejoin="round"/>
<path d="M21.9987 438.756L5.78503 451.266" stroke="black" stroke-linecap="round" stroke-linejoin="round"/>
<path d="M5.78503 434.202L21.9987 454.734" stroke="black" stroke-linecap="round" stroke-linejoin="round"/>
<path d="M182.009 451.459C183.507 451.459 184.722 449.641 184.722 447.398C184.722 445.155 183.507 443.336 182.009 443.336C180.512 443.336 179.297 445.155 179.297 447.398C179.297 449.641 180.512 451.459 182.009 451.459Z" fill="#52dcff" stroke="black" stroke-linecap="round" stroke-linejoin="round"/>
<path d="M119.667 599.183L136.761 636.866V439.428L119.667 466.186V599.183Z" fill="#A6FFEC" stroke="black" stroke-linecap="round" stroke-linejoin="round"/>
<path d="M174.805 454.235C176.303 454.235 177.518 452.417 177.518 450.174C177.518 447.931 176.303 446.113 174.805 446.113C173.307 446.113 172.093 447.931 172.093 450.174C172.093 452.417 173.307 454.235 174.805 454.235Z" fill="#52dcff" stroke="black" stroke-linecap="round" stroke-linejoin="round"/>
<path d="M167.602 457.011C169.1 457.011 170.314 455.193 170.314 452.95C170.314 450.707 169.1 448.889 167.602 448.889C166.104 448.889 164.89 450.707 164.89 452.95C164.89 455.193 166.104 457.011 167.602 457.011Z" fill="#52dcff" stroke="black" stroke-linecap="round" stroke-linejoin="round"/>
<path d="M119.667 473.696L102.574 460.054V439.428L119.667 466.186V473.696Z" fill="#00D2FF" stroke="black" stroke-linecap="round" stroke-linejoin="round"/>
<path d="M119.667 473.696L136.761 460.054V439.428L119.667 466.186V473.696Z" fill="#00D2FF" stroke="black" stroke-linecap="round" stroke-linejoin="round"/>
<path d="M181.363 524.648L157.906 521.806V480.088L181.363 474.428V524.648Z" fill="#FF9F10" stroke="black" stroke-linecap="round" stroke-linejoin="round"/>
<path d="M238.361 584.682C236.781 584.682 235.502 581.926 235.502 578.53C235.502 575.135 236.781 572.379 238.361 572.379H252.142V584.676H238.361V584.682Z" fill="#FF9F10" stroke="black" stroke-linecap="round" stroke-linejoin="round"/>
<path d="M252.136 584.689C253.715 584.689 254.995 581.935 254.995 578.537C254.995 575.139 253.715 572.385 252.136 572.385C250.557 572.385 249.277 575.139 249.277 578.537C249.277 581.935 250.557 584.689 252.136 584.689Z" fill="white" stroke="black" stroke-linecap="round" stroke-linejoin="round"/>
<path d="M238.361 554.769C236.781 554.769 235.502 552.012 235.502 548.617C235.502 545.221 236.781 542.465 238.361 542.465H252.142V554.762H238.361V554.769Z" fill="#FF9F10" stroke="black" stroke-linecap="round" stroke-linejoin="round"/>
<path d="M252.136 554.769C253.715 554.769 254.995 552.014 254.995 548.617C254.995 545.219 253.715 542.465 252.136 542.465C250.557 542.465 249.277 545.219 249.277 548.617C249.277 552.014 250.557 554.769 252.136 554.769Z" fill="white" stroke="black" stroke-linecap="round" stroke-linejoin="round"/>
<path d="M16.7677 479.861V527.558C16.7677 530.627 19.0401 533.224 22.0856 533.63C25.7575 534.123 29.0229 531.266 29.0229 527.558V506.526C29.0229 501.852 33.4145 498.417 37.9594 499.535" stroke="black" stroke-linecap="round" stroke-linejoin="round"/>
<path d="M16.7674 479.861C18.2911 479.861 19.5263 478.389 19.5263 476.572C19.5263 474.756 18.2911 473.283 16.7674 473.283C15.2437 473.283 14.0085 474.756 14.0085 476.572C14.0085 478.389 15.2437 479.861 16.7674 479.861Z" stroke="black" stroke-linecap="round" stroke-linejoin="round"/>
<path d="M222.32 594.116C223.844 594.116 225.079 592.644 225.079 590.827C225.079 589.011 223.844 587.538 222.32 587.538C220.797 587.538 219.562 589.011 219.562 590.827C219.562 592.644 220.797 594.116 222.32 594.116Z" stroke="black" stroke-linecap="round" stroke-linejoin="round"/>
<path d="M222.32 587.538V522.099C222.32 518.723 219.581 515.98 216.196 515.98C212.817 515.98 210.072 518.716 210.072 522.099V553.563C210.072 558.124 205.82 561.486 201.375 560.448" stroke="black" stroke-linecap="round" stroke-linejoin="round"/>
<path d="M52.7864 702.872H80.409C82.4415 702.872 84.0875 704.517 84.0875 706.547C84.0875 708.578 82.4415 710.222 80.409 710.222H52.7864C7.70402 710.222 -28.9683 746.86 -28.9683 791.901V878.752C-28.9683 880.783 -30.6143 882.427 -32.6469 882.427C-34.6794 882.427 -36.3254 880.783 -36.3254 878.752V791.901C-36.3254 742.806 3.65228 702.865 52.7931 702.865L52.7864 702.872Z" fill="#52dcff" stroke="black" stroke-miterlimit="10"/>
<path d="M94.9899 700.535H81.3486C79.7825 700.535 78.5164 703.258 78.5164 706.62C78.5164 709.983 79.7825 712.706 81.3486 712.706H94.9899C96.556 712.706 97.8221 709.983 97.8221 706.62C97.8221 703.258 96.556 700.535 94.9899 700.535Z" fill="#A6FFEC" stroke="black" stroke-linecap="round" stroke-linejoin="round"/>
<path d="M250.829 548.61C250.829 546.633 252.428 545.035 254.408 545.035H300.949C302.929 545.035 304.528 546.633 304.528 548.61C304.528 550.587 302.929 552.185 300.949 552.185H254.408C252.428 552.185 250.829 550.587 250.829 548.61Z" fill="#52dcff" stroke="black" stroke-miterlimit="10"/>
<path d="M263.898 949.672C261.792 949.612 260.173 947.774 260.173 945.67V907.228C260.173 879.664 282.411 856.828 310 857.001C333.591 857.148 352.816 837.94 352.67 814.371C352.497 786.807 375.354 764.59 402.943 764.59H463.413C486.777 764.59 505.903 745.715 505.837 722.373C505.757 694.71 528.254 672.179 555.93 672.179H580.088C582.2 672.179 584.053 673.804 584.106 675.921C584.159 678.038 582.42 679.863 580.261 679.863H555.944C532.579 679.863 513.454 698.738 513.52 722.08C513.6 749.743 491.102 772.273 463.426 772.273H402.757C379.213 772.273 360.5 791.435 360.353 814.963C360.18 842.307 337.949 864.511 310.586 864.684C287.042 864.831 267.863 883.526 267.863 907.048V945.83C267.863 947.987 266.077 949.731 263.904 949.665L263.898 949.672Z" fill="#52dcff" stroke="black" stroke-miterlimit="10"/>
<path d="M506.596 789.531H312.238V940.164H506.596V789.531Z" fill="white" stroke="black" stroke-linecap="round" stroke-linejoin="round"/>
<path d="M250.949 578.544C250.949 576.566 252.549 574.968 254.528 574.968H301.07C303.049 574.968 304.648 576.566 304.648 578.544C304.648 580.521 303.049 582.119 301.07 582.119H254.528C252.549 582.119 250.949 580.521 250.949 578.544Z" fill="#52dcff" stroke="black" stroke-miterlimit="10"/>
<path d="M43.2704 873.073H-69.1057V964.425H43.2704V873.073Z" fill="#001E2B" stroke="black" stroke-linecap="round" stroke-linejoin="round"/>
<path d="M43.2704 964.425L49.1881 968.746V877.394L43.2704 873.073V964.425Z" fill="white" stroke="black" stroke-linecap="round" stroke-linejoin="round"/>
<path d="M43.2704 964.425L49.1881 968.746H-63.188L-69.1057 964.425H43.2704Z" fill="black" stroke="black" stroke-linecap="round" stroke-linejoin="round"/>
<path d="M3.05936 921.675H-38.2112V926.063H3.05936V921.675Z" fill="#52dcff" stroke="black" stroke-linecap="round" stroke-linejoin="round"/>
<path d="M24.9972 921.675H7.19745V926.063H24.9972V921.675Z" fill="#52dcff" stroke="black" stroke-linecap="round" stroke-linejoin="round"/>
<path d="M514.926 494.362H277.472V629.583H514.926V494.362Z" fill="white" stroke="black" stroke-linecap="round" stroke-linejoin="round"/>
<path d="M514.926 494.362H277.472V508.716H514.926V494.362Z" fill="#F9EBFF" stroke="black" stroke-linecap="round" stroke-linejoin="round"/>
<path d="M359.386 594.616H345.638V608.351H359.386V594.616Z" fill="#5400F8" stroke="black" stroke-linecap="round" stroke-linejoin="round"/>
<path d="M342.746 594.616H328.998V608.351H342.746V594.616Z" fill="#B45AF2" stroke="black" stroke-linecap="round" stroke-linejoin="round"/>
<path d="M326.113 594.616H312.365V608.351H326.113V594.616Z" fill="#F2C5EE" stroke="black" stroke-linecap="round" stroke-linejoin="round"/>
<path d="M309.472 594.616H295.724V608.351H309.472V594.616Z" fill="#F9EBFF" stroke="black" stroke-linecap="round" stroke-linejoin="round"/>
<path d="M284.663 504.189C286.127 504.189 287.315 503.003 287.315 501.539C287.315 500.076 286.127 498.889 284.663 498.889C283.198 498.889 282.01 500.076 282.01 501.539C282.01 503.003 283.198 504.189 284.663 504.189Z" fill="white" stroke="black" stroke-linecap="round" stroke-linejoin="round"/>
<path d="M292.919 504.189C294.384 504.189 295.571 503.003 295.571 501.539C295.571 500.076 294.384 498.889 292.919 498.889C291.454 498.889 290.267 500.076 290.267 501.539C290.267 503.003 291.454 504.189 292.919 504.189Z" fill="white" stroke="black" stroke-linecap="round" stroke-linejoin="round"/>
<path d="M301.176 504.189C302.641 504.189 303.829 503.003 303.829 501.539C303.829 500.076 302.641 498.889 301.176 498.889C299.711 498.889 298.524 500.076 298.524 501.539C298.524 503.003 299.711 504.189 301.176 504.189Z" fill="white" stroke="black" stroke-linecap="round" stroke-linejoin="round"/>
<path d="M496.68 525.241H367.544V608.357H496.68V525.241Z" fill="#5400F8" stroke="black" stroke-linecap="round" stroke-linejoin="round"/>
<path d="M359.393 525.241H295.724V588.85H359.393V525.241Z" fill="#E3FCF7" stroke="black" stroke-linecap="round" stroke-linejoin="round"/>
<path d="M367.544 578.91C381.205 571.566 396.179 571.147 419.197 577.072C442.215 582.998 453.69 536.433 470.85 535.647C488.01 534.862 490.909 562.239 496.68 562.312V608.357H367.544V578.91Z" fill="#F2C5EE" stroke="black" stroke-linecap="round" stroke-linejoin="round"/>
<path d="M367.544 566.799H496.673" stroke="black" stroke-linecap="round" stroke-linejoin="round"/>
<path d="M367.544 546.02H496.673" stroke="black" stroke-linecap="round" stroke-linejoin="round"/>
<path d="M367.544 587.578H496.673" stroke="black" stroke-linecap="round" stroke-linejoin="round"/>
<path d="M327.312 578.351C339.09 578.351 348.637 568.812 348.637 557.045C348.637 545.279 339.09 535.74 327.312 535.74C315.535 535.74 305.987 545.279 305.987 557.045C305.987 568.812 315.535 578.351 327.312 578.351Z" fill="white" stroke="black" stroke-linecap="round" stroke-linejoin="round"/>
<path d="M327.313 571.446C335.274 571.446 341.727 564.999 341.727 557.046C341.727 549.092 335.274 542.645 327.313 542.645C319.352 542.645 312.898 549.092 312.898 557.046C312.898 564.999 319.352 571.446 327.313 571.446Z" fill="white" stroke="black" stroke-linecap="round" stroke-linejoin="round"/>
<path d="M327.312 564.675C331.53 564.675 334.949 561.259 334.949 557.046C334.949 552.832 331.53 549.416 327.312 549.416C323.095 549.416 319.675 552.832 319.675 557.046C319.675 561.259 323.095 564.675 327.312 564.675Z" fill="white" stroke="black" stroke-linecap="round" stroke-linejoin="round"/>
<path d="M327.312 535.74V578.351" stroke="black" stroke-linecap="round" stroke-linejoin="round"/>
<path d="M348.637 557.046H305.994" stroke="black" stroke-linecap="round" stroke-linejoin="round"/>
<path d="M338.808 545.907C339.709 545.907 340.44 545.177 340.44 544.276C340.44 543.375 339.709 542.645 338.808 542.645C337.906 542.645 337.175 543.375 337.175 544.276C337.175 545.177 337.906 545.907 338.808 545.907Z" fill="#52dcff" stroke="black" stroke-linecap="round" stroke-linejoin="round"/>
<path d="M333.324 553.437C334.225 553.437 334.956 552.707 334.956 551.806C334.956 550.905 334.225 550.175 333.324 550.175C332.422 550.175 331.691 550.905 331.691 551.806C331.691 552.707 332.422 553.437 333.324 553.437Z" fill="#52dcff" stroke="black" stroke-linecap="round" stroke-linejoin="round"/>
<path d="M309.586 563.923C310.488 563.923 311.218 563.193 311.218 562.292C311.218 561.391 310.488 560.661 309.586 560.661C308.684 560.661 307.953 561.391 307.953 562.292C307.953 563.193 308.684 563.923 309.586 563.923Z" fill="#52dcff" stroke="black" stroke-linecap="round" stroke-linejoin="round"/>
<path d="M524.269 639.057L514.733 629.583H277.112L286.649 639.057H524.269Z" fill="black" stroke="black" stroke-linecap="round" stroke-linejoin="round"/>
<path d="M229.931 823.346H-0.905945L120.806 670.475H351.636L229.931 823.346Z" fill="#E9FF99" stroke="black" stroke-linecap="round" stroke-linejoin="round"/>
<path d="M152.794 692.24H101.821L128.523 658.697H179.497L152.794 692.24Z" fill="#52dcff" stroke="black" stroke-linecap="round" stroke-linejoin="round"/>
<path d="M152.794 692.24L159.724 714.597L186.427 681.061L179.497 658.697L152.794 692.24Z" fill="white" stroke="black" stroke-linecap="round" stroke-linejoin="round"/>
<path d="M159.724 714.597H95.0496L101.82 692.24H152.954L159.724 714.597Z" fill="black" stroke="black" stroke-linecap="round" stroke-linejoin="round"/>
<path d="M223.36 692.24H172.38L199.083 658.697H250.063L223.36 692.24Z" fill="#52dcff" stroke="black" stroke-linecap="round" stroke-linejoin="round"/>
<path d="M223.36 692.24L230.29 714.597L256.987 681.061L250.063 658.697L223.36 692.24Z" fill="white" stroke="black" stroke-linecap="round" stroke-linejoin="round"/>
<path d="M230.29 714.597H165.609L172.38 692.24H223.513L230.29 714.597Z" fill="black" stroke="black" stroke-linecap="round" stroke-linejoin="round"/>
<path d="M293.919 692.24H242.945L269.648 658.697H320.622L293.919 692.24Z" fill="#52dcff" stroke="black" stroke-linecap="round" stroke-linejoin="round"/>
<path d="M293.919 692.24L300.85 714.597L327.553 681.061L320.622 658.697L293.919 692.24Z" fill="white" stroke="black" stroke-linecap="round" stroke-linejoin="round"/>
<path d="M300.85 714.597H236.175L242.946 692.24H294.079L300.85 714.597Z" fill="black" stroke="black" stroke-linecap="round" stroke-linejoin="round"/>
<path d="M113.876 741.161H62.9025L89.6054 707.626H140.579L113.876 741.161Z" fill="#52dcff" stroke="black" stroke-linecap="round" stroke-linejoin="round"/>
<path d="M113.876 741.161L120.806 763.525L147.509 729.983L140.578 707.626L113.876 741.161Z" fill="white" stroke="black" stroke-linecap="round" stroke-linejoin="round"/>
<path d="M120.806 763.525H56.1315L62.9022 741.161H114.036L120.806 763.525Z" fill="black" stroke="black" stroke-linecap="round" stroke-linejoin="round"/>
<path d="M184.441 741.161H133.468L160.164 707.626H211.144L184.441 741.161Z" fill="#52dcff" stroke="black" stroke-linecap="round" stroke-linejoin="round"/>
<path d="M184.442 741.161L191.372 763.525L218.075 729.983L211.145 707.626L184.442 741.161Z" fill="white" stroke="black" stroke-linecap="round" stroke-linejoin="round"/>
<path d="M191.372 763.525H126.698L133.468 741.161H184.602L191.372 763.525Z" fill="black" stroke="black" stroke-linecap="round" stroke-linejoin="round"/>
<path d="M255.007 741.161H204.027L230.73 707.626H281.71L255.007 741.161Z" fill="#52dcff" stroke="black" stroke-linecap="round" stroke-linejoin="round"/>
<path d="M255.007 741.161L261.938 763.525L288.634 729.983L281.71 707.626L255.007 741.161Z" fill="white" stroke="black" stroke-linecap="round" stroke-linejoin="round"/>
<path d="M261.938 763.525H197.257L204.028 741.161H255.161L261.938 763.525Z" fill="black" stroke="black" stroke-linecap="round" stroke-linejoin="round"/>
<path d="M74.7112 790.336H23.7311L50.434 756.794H101.414L74.7112 790.336Z" fill="#52dcff" stroke="black" stroke-linecap="round" stroke-linejoin="round"/>
<path d="M74.7112 790.336L81.6418 812.693L108.338 779.158L101.414 756.794L74.7112 790.336Z" fill="white" stroke="black" stroke-linecap="round" stroke-linejoin="round"/>
<path d="M81.6421 812.693H16.9607L23.7314 790.336H74.8647L81.6421 812.693Z" fill="black" stroke="black" stroke-linecap="round" stroke-linejoin="round"/>
<path d="M145.271 790.336H94.2971L121 756.794H171.973L145.271 790.336Z" fill="#52dcff" stroke="black" stroke-linecap="round" stroke-linejoin="round"/>
<path d="M145.27 790.336L152.201 812.693L178.904 779.158L171.973 756.794L145.27 790.336Z" fill="white" stroke="black" stroke-linecap="round" stroke-linejoin="round"/>
<path d="M152.201 812.693H87.5262L94.2969 790.336H145.43L152.201 812.693Z" fill="black" stroke="black" stroke-linecap="round" stroke-linejoin="round"/>
<path d="M215.836 790.336H164.863L191.565 756.794H242.539L215.836 790.336Z" fill="#52dcff" stroke="black" stroke-linecap="round" stroke-linejoin="round"/>
<path d="M215.836 790.336L222.766 812.693L249.469 779.158L242.539 756.794L215.836 790.336Z" fill="white" stroke="black" stroke-linecap="round" stroke-linejoin="round"/>
<path d="M222.766 812.693H158.092L164.862 790.336H215.996L222.766 812.693Z" fill="black" stroke="black" stroke-linecap="round" stroke-linejoin="round"/>
<path d="M229.591 823.346H-0.905945V840.982H229.591V823.346Z" fill="#B1FF05" stroke="black" stroke-linecap="round" stroke-linejoin="round"/>
<path d="M229.597 840.982L351.636 688.112V670.475L229.597 823.346V840.982Z" fill="white" stroke="black" stroke-linecap="round" stroke-linejoin="round"/>
<path d="M175.365 827.727H111.917V836.628H175.365V827.727Z" fill="white" stroke="black" stroke-linecap="round" stroke-linejoin="round"/>
<path d="M92.2907 736.408C85.8732 736.408 83.5408 733.338 86.9328 729.051C89.0586 726.361 92.4173 724.33 96.2625 723.179C95.1429 722.093 95.3429 720.449 96.8556 718.545C99.6745 714.989 105.739 712.38 111.363 712.38C117.121 712.38 118.96 714.983 116.135 718.545C114.615 720.455 112.203 722.093 109.411 723.179C111.437 724.33 111.517 726.361 109.377 729.051C105.965 733.338 98.8482 736.408 92.2907 736.408ZM94.963 733.045C98.8148 733.045 102.547 731.181 104.286 728.984C106.059 726.754 105.266 724.916 101.454 724.916C97.6886 724.916 93.8901 726.754 92.1241 728.984C90.3848 731.181 91.2445 733.045 94.963 733.045ZM103.833 721.867C106.732 721.867 109.691 720.455 111.023 718.778C112.41 717.033 111.643 715.682 108.744 715.682C105.845 715.682 102.98 717.033 101.594 718.778C100.261 720.455 101.074 721.867 103.833 721.867Z" fill="black"/>
<path d="M233.543 736.221C227.012 736.221 225.272 732.553 229.398 727.373L234.182 721.361C238.287 716.201 245.818 712.566 252.315 712.566C258.859 712.566 260.612 716.201 256.534 721.361L251.775 727.373C247.677 732.553 240.113 736.221 233.543 736.221ZM236.321 732.713C240.107 732.713 244.325 730.735 246.997 727.366L251.762 721.354C254.394 718.032 253.335 716.035 249.563 716.035C245.838 716.035 241.606 718.032 238.96 721.354L234.182 727.366C231.503 730.735 232.59 732.713 236.328 732.713H236.321Z" fill="black"/>
<path d="M163.803 736.601C161.677 736.601 160.837 735.449 161.964 734.031C163.09 732.613 165.776 731.461 167.895 731.461C170.014 731.461 170.887 732.646 169.781 734.031C168.674 735.416 165.969 736.601 163.803 736.601Z" fill="black"/>
<path d="M295.898 745.123C294.532 745.123 293.419 747.173 293.419 749.697C293.419 752.22 294.526 754.271 295.898 754.271H305.754V745.123H295.898Z" fill="#F9EBFF" stroke="black" stroke-linecap="round" stroke-linejoin="round"/>
<path d="M305.754 754.271C307.123 754.271 308.233 752.223 308.233 749.697C308.233 747.171 307.123 745.123 305.754 745.123C304.385 745.123 303.275 747.171 303.275 749.697C303.275 752.223 304.385 754.271 305.754 754.271Z" fill="white" stroke="black" stroke-linecap="round" stroke-linejoin="round"/>
<path d="M355.795 753.538H308.707C306.581 753.538 304.861 751.821 304.861 749.697C304.861 747.573 306.581 745.855 308.707 745.855H355.795C376.553 745.855 393.44 728.984 393.44 708.245V645.721C393.44 643.597 395.16 641.88 397.285 641.88C399.411 641.88 401.131 643.597 401.131 645.721V708.245C401.131 733.219 380.798 753.532 355.802 753.532L355.795 753.538Z" fill="#52dcff" stroke="black" stroke-miterlimit="10"/>
<path d="M162.204 833.625C162.204 832.028 159.525 830.736 156.226 830.736C152.928 830.736 150.249 832.028 150.249 833.625V856.895H162.211V833.625H162.204Z" fill="#FF9F10" stroke="black" stroke-linecap="round" stroke-linejoin="round"/>
<path d="M156.226 859.784C159.528 859.784 162.204 858.49 162.204 856.895C162.204 855.299 159.528 854.005 156.226 854.005C152.925 854.005 150.249 855.299 150.249 856.895C150.249 858.49 152.925 859.784 156.226 859.784Z" fill="white" stroke="black" stroke-linecap="round" stroke-linejoin="round"/>
<path d="M506.596 940.164H312.238V953.347H506.596V940.164Z" fill="black" stroke="black" stroke-linecap="round" stroke-linejoin="round"/>
<path d="M156.226 854.012V830.736" stroke="black" stroke-linecap="round" stroke-linejoin="round"/>
<path d="M160.398 854.777V831.615" stroke="black" stroke-linecap="round" stroke-linejoin="round"/>
<path d="M152.108 854.777V831.615" stroke="black" stroke-linecap="round" stroke-linejoin="round"/>
<path d="M137.147 833.625C137.147 832.028 134.468 830.736 131.17 830.736C127.871 830.736 125.192 832.028 125.192 833.625V856.895H137.154V833.625H137.147Z" fill="#00D2FF" stroke="black" stroke-linecap="round" stroke-linejoin="round"/>
<path d="M131.17 859.784C134.471 859.784 137.147 858.49 137.147 856.895C137.147 855.299 134.471 854.005 131.17 854.005C127.868 854.005 125.192 855.299 125.192 856.895C125.192 858.49 127.868 859.784 131.17 859.784Z" fill="white" stroke="black" stroke-linecap="round" stroke-linejoin="round"/>
<path d="M131.17 854.012V830.736" stroke="black" stroke-linecap="round" stroke-linejoin="round"/>
<path d="M135.348 854.777V831.615" stroke="black" stroke-linecap="round" stroke-linejoin="round"/>
<path d="M127.058 854.777V831.615" stroke="black" stroke-linecap="round" stroke-linejoin="round"/>
<path d="M382.238 947.661C382.238 962.648 346.838 974.798 303.169 974.798C259.499 974.798 224.1 962.648 224.1 947.661V936.116H382.231V947.661H382.238Z" fill="white" stroke="black" stroke-linecap="round" stroke-linejoin="round"/>
<path d="M303.176 963.254C346.845 963.254 382.245 951.104 382.245 936.116C382.245 921.129 346.845 908.979 303.176 908.979C259.507 908.979 224.107 921.129 224.107 936.116C224.107 951.104 259.507 963.254 303.176 963.254Z" fill="#FFC010" stroke="black" stroke-linecap="round" stroke-linejoin="round"/>
<path d="M382.238 936.116C382.238 926.389 367.317 917.854 344.906 913.067L303.169 936.116L373.168 948.74C378.953 944.971 382.231 940.67 382.231 936.116H382.238Z" fill="#FFEEA9" stroke="black" stroke-linecap="round" stroke-linejoin="round"/>
<path d="M312.512 909.165L303.176 936.116L344.913 913.067C335.297 911.01 324.308 909.645 312.519 909.172L312.512 909.165Z" fill="#FFE212" stroke="black" stroke-linecap="round" stroke-linejoin="round"/>
<path d="M303.175 936.116L228.991 945.524C240.14 955.877 269.142 963.254 303.175 963.254C333.563 963.254 359.94 957.368 373.175 948.74L303.175 936.116Z" fill="#FF9F10" stroke="black" stroke-linecap="round" stroke-linejoin="round"/>
<path d="M234.129 959.672C236.29 959.672 238.041 957.752 238.041 955.384C238.041 953.016 236.29 951.096 234.129 951.096C231.969 951.096 230.218 953.016 230.218 955.384C230.218 957.752 231.969 959.672 234.129 959.672Z" fill="black" stroke="black" stroke-linecap="round" stroke-linejoin="round"/>
<path d="M233.343 959.179C211.718 959.179 191.386 950.764 176.092 935.491C160.798 920.211 152.381 899.898 152.381 878.293V859.784C152.381 857.66 154.101 855.943 156.227 855.943C158.352 855.943 160.072 857.66 160.072 859.784V878.293C160.072 918.659 192.945 951.503 233.35 951.503C235.476 951.503 237.195 953.22 237.195 955.344C237.195 957.468 235.476 959.186 233.35 959.186L233.343 959.179Z" fill="#52dcff" stroke="black" stroke-miterlimit="10"/>
<path d="M47.2355 911.615C48.7556 911.615 49.9878 909.815 49.9878 907.594C49.9878 905.373 48.7556 903.573 47.2355 903.573C45.7155 903.573 44.4833 905.373 44.4833 907.594C44.4833 909.815 45.7155 911.615 47.2355 911.615Z" fill="black" stroke="black" stroke-linecap="round" stroke-linejoin="round"/>
<path d="M83.348 911.402H48.8948C46.769 911.402 45.0497 909.685 45.0497 907.561C45.0497 905.437 46.769 903.719 48.8948 903.719H83.348C95.0968 903.719 106.139 899.152 114.449 890.85C122.759 882.547 127.331 871.515 127.331 859.777C127.331 857.654 129.05 855.936 131.176 855.936C133.302 855.936 135.021 857.654 135.021 859.777C135.021 873.566 129.65 886.529 119.887 896.276C110.131 906.023 97.156 911.396 83.3547 911.396L83.348 911.402Z" fill="#52dcff" stroke="black" stroke-miterlimit="10"/>
<path d="M506.596 789.531H312.238V801.794H506.596V789.531Z" fill="#B45AF2" stroke="black" stroke-linecap="round" stroke-linejoin="round"/>
<path d="M324.513 789.531H312.238V801.794H324.513V789.531Z" fill="white" stroke="black" stroke-linecap="round" stroke-linejoin="round"/>
<path d="M324.513 789.531L312.238 801.794" stroke="black" stroke-linecap="round" stroke-linejoin="round"/>
<path d="M312.238 789.531L324.513 801.794" stroke="black" stroke-linecap="round" stroke-linejoin="round"/>
<path d="M407.308 818.599H328.613V876.562H407.308V818.599Z" fill="#E9FF99" stroke="black" stroke-linecap="round" stroke-linejoin="round"/>
<path d="M328.613 859.964L350.924 825.53L372.749 859.964L388.369 842.747L407.308 864.851V876.562H328.613V859.964Z" fill="#52dcff" stroke="black" stroke-linecap="round" stroke-linejoin="round"/>
<path d="M378.7 838.905C382.807 838.905 386.137 835.578 386.137 831.475C386.137 827.371 382.807 824.045 378.7 824.045C374.592 824.045 371.262 827.371 371.262 831.475C371.262 835.578 374.592 838.905 378.7 838.905Z" fill="#FFE212" stroke="black" stroke-linecap="round" stroke-linejoin="round"/>
</g>
<defs>
<clipPath id="clip0_3840_1229">
<rect width="384" height="1024" fill="white"/>
</clipPath>
</defs>
</svg>